# This file uses centimeters as units for non-parametric coordinates.

mtllib boilertank.mtl
v 1.000000 1.000000 -0.000000
v -0.000000 0.000000 0.000000
v 0.000000 1.000000 1.000000
v 1.000000 0.187500 -0.000000
v 0.000000 0.187500 1.000000
v 0.000000 0.000000 0.812500
v 1.000000 0.187500 0.812500
v 1.000000 1.000000 0.812500
v 0.812500 1.000000 1.000000
v 0.812500 0.187500 1.000000
v 0.812500 0.000000 0.812500
v 0.812500 0.000000 -0.000000
vt 0.375000 0.000000
vt 0.375000 0.500000
vt 0.875000 0.000000
vt 0.375000 0.219342
vt 0.625000 0.533237
vt 0.875000 0.216763
vt 0.593013 0.500000
vt 0.579452 0.217715
vt 0.569338 0.000000
vt 0.569338 1.000000
vt 0.667013 0.000000
vt 0.655908 0.217279
vt 0.585541 0.279423
vt 0.335461 0.250000
vt 0.375000 0.289539
vn 0.707107 -0.707107 -0.000000
vn 0.707107 -0.707107 -0.000000
vn 0.707107 -0.707107 -0.000000
vn 0.707107 -0.707107 -0.000000
vn 1.000000 -0.000000 -0.000000
vn 1.000000 -0.000000 -0.000000
vn 1.000000 -0.000000 -0.000000
vn 1.000000 -0.000000 -0.000000
vn 0.000000 -0.000000 1.000000
vn 0.000000 -0.000000 1.000000
vn 0.000000 -0.000000 1.000000
vn 0.000000 -0.000000 1.000000
vn -0.000000 -1.000000 0.000000
vn -0.000000 -1.000000 0.000000
vn -0.000000 -1.000000 0.000000
vn -0.000000 -1.000000 0.000000
vn 0.577350 -0.577350 0.577350
vn 0.577350 -0.577350 0.577350
vn 0.577350 -0.577350 0.577350
vn 0.000000 -0.707107 0.707107
vn 0.000000 -0.707107 0.707107
vn 0.000000 -0.707107 0.707107
vn 0.000000 -0.707107 0.707107
vn 0.707107 -0.000000 0.707107
vn 0.707107 -0.000000 0.707107
vn 0.707107 -0.000000 0.707107
vn 0.707107 -0.000000 0.707107
usemtl initialShadingGroup
f 7/8/1 11/13/2 12/14/3 4/4/4
f 1/1/5 8/9/6 7/8/7 4/4/8
f 10/12/9 9/11/10 3/3/11 5/6/12
f 12/15/13 11/13/14 6/7/15 2/2/16
f 10/12/17 11/13/18 7/8/19
f 11/13/20 10/12/21 5/5/22 6/7/23
f 9/11/24 10/12/25 7/8/26 8/10/27
