# This file uses centimeters as units for non-parametric coordinates.

mtllib boilertank.mtl
v -0.000000 0.000000 1.000000
v 0.000000 1.000000 0.000000
v 1.000000 -0.000000 0.000000
v -0.000000 0.812500 1.000000
v 1.000000 0.812500 0.000000
v 0.812500 1.000000 0.000000
v 0.812500 0.812500 1.000000
v 0.812500 0.000000 1.000000
v 1.000000 -0.000000 0.812500
v 1.000000 0.812500 0.812500
v 0.812500 1.000000 0.812500
v -0.000000 1.000000 0.812500
vt 0.579452 0.217715
vt 0.585541 0.279423
vt 0.335461 0.250000
vt 0.375000 0.219342
vt 0.375000 0.000000
vt 0.569338 0.000000
vt 0.655908 0.217279
vt 0.667013 0.000000
vt 0.875000 0.000000
vt 0.875000 0.216763
vt 0.375000 0.289539
vt 0.593013 0.500000
vt 0.375000 0.500000
vt 0.625000 0.533237
vt 0.569338 1.000000
vn -0.000000 0.707107 0.707107
vn -0.000000 0.707107 0.707107
vn -0.000000 0.707107 0.707107
vn -0.000000 0.707107 0.707107
vn -0.000000 0.000000 1.000000
vn -0.000000 0.000000 1.000000
vn -0.000000 0.000000 1.000000
vn -0.000000 0.000000 1.000000
vn 1.000000 -0.000000 0.000000
vn 1.000000 -0.000000 0.000000
vn 1.000000 -0.000000 0.000000
vn 1.000000 -0.000000 0.000000
vn 0.000000 1.000000 0.000000
vn 0.000000 1.000000 0.000000
vn 0.000000 1.000000 0.000000
vn 0.000000 1.000000 0.000000
vn 0.577350 0.577350 0.577350
vn 0.577350 0.577350 0.577350
vn 0.577350 0.577350 0.577350
vn 0.707107 0.707107 0.000000
vn 0.707107 0.707107 0.000000
vn 0.707107 0.707107 0.000000
vn 0.707107 0.707107 0.000000
vn 0.707107 -0.000000 0.707107
vn 0.707107 -0.000000 0.707107
vn 0.707107 -0.000000 0.707107
vn 0.707107 -0.000000 0.707107
usemtl initialShadingGroup
f 7/1/1 11/2/2 12/3/3 4/4/4
f 1/5/5 8/6/6 7/1/7 4/4/8
f 10/7/9 9/8/10 3/9/11 5/10/12
f 12/11/13 11/2/14 6/12/15 2/13/16
f 10/7/17 11/2/18 7/1/19
f 11/2/20 10/7/21 5/14/22 6/12/23
f 9/8/24 10/7/25 7/1/26 8/15/27
