# This file uses centimeters as units for non-parametric coordinates.

mtllib boiler.mtl
v 1.000000 0.000000 1.000000
v 0.875000 0.000000 1.000000
v 0.875000 0.125000 1.000000
v 1.000000 0.125000 1.000000
v 0.875000 1.000000 1.000000
v 0.875000 0.875000 1.000000
v 0.812500 0.875000 1.000000
v 0.812500 1.000000 1.000000
v 0.812500 0.687500 0.937500
v 0.812500 0.875000 0.937500
v 0.875000 0.875000 0.937500
v 0.875000 0.687500 0.937500
v 0.812500 0.375000 1.000000
v 0.812500 0.499020 1.000000
v 0.875000 0.500000 1.000000
v 0.875000 0.375000 1.000000
v 0.812500 0.562500 1.000000
v 0.750000 0.562500 1.000000
v 0.750000 0.625000 1.000000
v 0.812500 0.625000 1.000000
v 0.625000 0.687500 1.000000
v 0.625000 0.625000 1.000000
v 0.000000 0.625000 1.000000
v 0.000000 0.687500 1.000000
v 0.000000 0.625000 0.937500
v 0.625000 0.625000 0.937500
v 0.625000 0.562500 0.937500
v 0.000000 0.562500 0.937500
v 0.750000 0.499274 0.937500
v 0.812500 0.499020 0.937500
v 0.812500 0.375000 0.937500
v 0.750000 0.375000 0.937500
v 0.750000 0.499274 1.000000
v 0.875000 0.375000 0.937500
v 0.875000 0.125000 0.937500
v 0.625000 0.562500 1.000000
v 0.750000 0.562500 0.937500
v 0.875000 0.687500 1.000000
v 0.812500 0.687500 1.000000
v 0.750000 0.687500 1.000000
v 0.750000 0.687500 0.937500
v 0.000000 0.687500 0.937500
v 0.625000 0.687500 0.937500
v 0.625000 0.499798 0.937500
v 0.000000 0.500874 0.937500
v 0.000000 0.375000 0.937500
v 0.625000 0.375000 0.937500
v 0.000000 0.125000 0.937500
v 0.625000 0.125000 0.937500
v 0.625000 0.125000 1.000000
v 0.000000 0.125000 1.000000
v 0.000000 0.000000 1.000000
v 0.625000 0.000000 1.000000
v 0.750000 0.125000 0.937500
v 0.750000 0.125000 1.000000
v 0.750000 0.000000 1.000000
v 0.812500 0.125000 0.937500
v 0.812500 0.125000 1.000000
v 0.812500 0.000000 1.000000
v 0.625000 0.875000 0.937500
v 0.750000 0.875000 0.937500
v 0.625000 0.875000 1.000000
v 0.750000 0.875000 1.000000
v 0.750000 1.000000 1.000000
v 0.625000 1.000000 1.000000
v 0.000000 0.875000 0.937500
v 0.000000 0.875000 1.000000
v 0.000000 1.000000 1.000000
v 0.875000 0.625000 1.000000
v 1.000000 0.625000 1.000000
v 1.000000 0.687500 1.000000
v 0.875000 0.562500 1.000000
v 1.000000 0.562500 1.000000
v 1.000000 0.500000 1.000000
v 1.000000 0.375000 1.000000
v 1.000000 0.875000 1.000000
v 1.000000 1.000000 1.000000
v 1.000000 0.125000 0.875000
v 1.000000 0.875000 0.875000
v 1.000000 0.687500 0.875000
v 1.000000 0.375000 0.875000
v 1.000000 0.375000 0.812500
v 1.000000 0.687500 0.812500
v 1.000000 0.562500 0.812500
v 1.000000 0.687500 0.000000
v 1.000000 0.562500 0.625000
v 1.000000 0.687500 0.625000
v 1.000000 0.625000 0.625000
v 1.000000 0.625000 0.000000
v 1.000000 0.499020 0.812500
v 1.000000 0.499274 0.750000
v 1.000000 0.562500 0.750000
v 0.937500 0.375000 0.750000
v 0.937500 0.375000 0.812500
v 0.937500 0.375000 0.875000
v 0.937500 0.125000 0.875000
v 0.937500 0.625000 0.625000
v 0.937500 0.625000 0.000000
v 0.937500 0.562500 0.625000
v 0.937500 0.562500 0.000000
v 0.937500 0.562500 0.750000
v 0.937500 0.499274 0.750000
v 0.937500 0.499020 0.812500
v 0.937500 0.875000 0.875000
v 0.937500 0.687500 0.875000
v 0.937500 0.687500 0.812500
v 0.937500 0.687500 0.625000
v 0.937500 0.687500 0.000000
v 0.937500 0.500874 0.000000
v 0.937500 0.375000 0.000000
v 0.937500 0.125000 0.000000
v 1.000000 0.125000 0.000000
v 0.937500 0.499798 0.625000
v 0.937500 0.375000 0.625000
v 0.937500 0.125000 0.625000
v 1.000000 0.125000 0.625000
v 0.937500 0.125000 0.750000
v 1.000000 0.125000 0.750000
v 0.937500 0.125000 0.812500
v 1.000000 0.125000 0.812500
v 1.000000 0.687500 0.750000
v 0.937500 0.687500 0.750000
v 0.937500 0.875000 0.750000
v 1.000000 0.875000 0.750000
v 0.937500 0.875000 0.812500
v 1.000000 0.875000 0.812500
v 0.937500 0.875000 0.625000
v 1.000000 0.875000 0.625000
v 0.937500 0.875000 0.000000
v 1.000000 0.875000 0.000000
v 1.000000 0.625000 0.750000
v 1.000000 0.625000 0.812500
v 1.000000 0.625000 0.875000
v 1.000000 0.562500 0.875000
v 1.000000 0.500000 0.875000
v 1.000000 0.000000 1.000000
v 1.000000 0.000000 0.875000
v 1.000000 0.125000 1.000000
v 1.000000 1.000000 0.812500
v 1.000000 1.000000 0.875000
v 1.000000 0.000000 0.625000
v 1.000000 0.000000 0.000000
v 1.000000 0.000000 0.750000
v 1.000000 0.000000 0.812500
v 1.000000 1.000000 0.625000
v 1.000000 1.000000 0.750000
v 1.000000 1.000000 0.000000
v 1.000000 0.687500 1.000000
v 1.000000 0.625000 1.000000
v 1.000000 0.562500 1.000000
v 1.000000 0.500000 1.000000
v 1.000000 0.375000 1.000000
v 1.000000 0.875000 1.000000
v 1.000000 1.000000 1.000000
v 1.000000 1.000000 1.000000
v 1.000000 1.000000 0.000000
v 0.000000 1.000000 0.000000
v 0.000000 1.000000 1.000000
v 0.000000 0.000000 0.000000
v 1.000000 0.000000 0.000000
v 1.000000 0.000000 1.000000
v 0.000000 0.000000 1.000000
vt 0.500000 0.000000
vt 0.500000 0.031250
vt 0.468750 0.031250
vt 0.468750 0.000000
vt 0.468750 0.250000
vt 0.453125 0.250000
vt 0.453125 0.218750
vt 0.468750 0.218750
vt 0.453125 0.171875
vt 0.468750 0.171875
vt 0.468750 0.218750
vt 0.453125 0.218750
vt 0.453125 0.093750
vt 0.468750 0.093750
vt 0.468750 0.125000
vt 0.453125 0.125000
vt 0.453125 0.140625
vt 0.453125 0.156250
vt 0.437500 0.156250
vt 0.437500 0.140625
vt 0.406250 0.171875
vt 0.250000 0.171875
vt 0.250000 0.156250
vt 0.406250 0.156250
vt 0.250000 0.156250
vt 0.250000 0.140625
vt 0.406250 0.140625
vt 0.406250 0.156250
vt 0.437500 0.125000
vt 0.437500 0.093750
vt 0.453125 0.093750
vt 0.453125 0.125000
vt 0.437500 0.125000
vt 0.296875 0.250000
vt 0.296875 0.265625
vt 0.281250 0.265625
vt 0.281250 0.250000
vt 0.218750 0.265625
vt 0.218750 0.250000
vt 0.375000 0.500000
vt 0.375000 0.484375
vt 0.359375 0.484375
vt 0.359375 0.500000
vt 0.343750 0.484375
vt 0.343750 0.500000
vt 0.312500 0.500000
vt 0.312500 0.484375
vt 0.296875 0.484375
vt 0.296875 0.500000
vt 0.281250 0.484375
vt 0.281250 0.500000
vt 0.250000 0.484375
vt 0.250000 0.500000
vt 0.453125 0.171875
vt 0.468750 0.171875
vt 0.468750 0.156250
vt 0.453125 0.156250
vt 0.015625 0.218750
vt 0.031250 0.218750
vt 0.031250 0.171875
vt 0.015625 0.171875
vt 0.468750 0.218750
vt 0.468750 0.234375
vt 0.453125 0.234375
vt 0.453125 0.218750
vt 0.437500 0.234375
vt 0.437500 0.218750
vt 0.406250 0.218750
vt 0.406250 0.234375
vt 0.250000 0.234375
vt 0.250000 0.218750
vt 0.250000 0.125000
vt 0.406250 0.125000
vt 0.250000 0.093750
vt 0.406250 0.093750
vt 0.250000 0.031250
vt 0.406250 0.031250
vt 0.156250 0.265625
vt 0.000000 0.265625
vt 0.000000 0.250000
vt 0.156250 0.250000
vt 0.250000 0.000000
vt 0.406250 0.000000
vt 0.406250 0.031250
vt 0.250000 0.031250
vt 0.437500 0.140625
vt 0.437500 0.031250
vt 0.187500 0.265625
vt 0.187500 0.250000
vt 0.437500 0.000000
vt 0.437500 0.031250
vt 0.453125 0.031250
vt 0.203125 0.265625
vt 0.203125 0.250000
vt 0.453125 0.000000
vt 0.453125 0.031250
vt 0.468750 0.031250
vt 0.468750 0.093750
vt 0.406250 0.140625
vt 0.406250 0.171875
vt 0.437500 0.171875
vt 0.437500 0.218750
vt 0.406250 0.218750
vt 0.406250 0.171875
vt 0.437500 0.171875
vt 0.437500 0.156250
vt 0.406250 0.156250
vt 0.437500 0.250000
vt 0.406250 0.250000
vt 0.406250 0.218750
vt 0.437500 0.218750
vt 0.250000 0.171875
vt 0.250000 0.218750
vt 0.250000 0.171875
vt 0.250000 0.156250
vt 0.250000 0.250000
vt 0.250000 0.218750
vt 0.437500 0.171875
vt 0.453125 0.171875
vt 0.468750 0.156250
vt 0.468750 0.171875
vt 0.500000 0.156250
vt 0.500000 0.171875
vt 0.468750 0.140625
vt 0.500000 0.140625
vt 0.500000 0.125000
vt 0.500000 0.093750
vt 0.500000 0.218750
vt 0.500000 0.250000
vt 0.500000 0.000000
vt 0.468750 0.000000
vt 0.468750 0.031250
vt 0.500000 0.031250
vt 0.468750 0.250000
vt 0.468750 0.218750
vt 0.453125 0.218750
vt 0.453125 0.250000
vt 0.453125 0.171875
vt 0.453125 0.218750
vt 0.468750 0.218750
vt 0.468750 0.171875
vt 0.453125 0.093750
vt 0.453125 0.125000
vt 0.468750 0.125000
vt 0.468750 0.093750
vt 0.453125 0.140625
vt 0.437500 0.140625
vt 0.437500 0.156250
vt 0.453125 0.156250
vt 0.406250 0.171875
vt 0.406250 0.156250
vt 0.250000 0.156250
vt 0.250000 0.171875
vt 0.250000 0.156250
vt 0.406250 0.156250
vt 0.406250 0.140625
vt 0.250000 0.140625
vt 0.437500 0.125000
vt 0.453125 0.125000
vt 0.453125 0.093750
vt 0.437500 0.093750
vt 0.437500 0.125000
vt 0.296875 0.250000
vt 0.281250 0.250000
vt 0.281250 0.265625
vt 0.296875 0.265625
vt 0.218750 0.250000
vt 0.218750 0.265625
vt 0.375000 0.500000
vt 0.359375 0.500000
vt 0.359375 0.484375
vt 0.375000 0.484375
vt 0.343750 0.500000
vt 0.343750 0.484375
vt 0.312500 0.500000
vt 0.296875 0.500000
vt 0.296875 0.484375
vt 0.312500 0.484375
vt 0.281250 0.500000
vt 0.281250 0.484375
vt 0.250000 0.500000
vt 0.250000 0.484375
vt 0.453125 0.171875
vt 0.453125 0.156250
vt 0.468750 0.156250
vt 0.468750 0.171875
vt 0.015625 0.218750
vt 0.015625 0.171875
vt 0.031250 0.171875
vt 0.031250 0.218750
vt 0.468750 0.218750
vt 0.453125 0.218750
vt 0.453125 0.234375
vt 0.468750 0.234375
vt 0.437500 0.218750
vt 0.437500 0.234375
vt 0.406250 0.218750
vt 0.250000 0.218750
vt 0.250000 0.234375
vt 0.406250 0.234375
vt 0.406250 0.125000
vt 0.250000 0.125000
vt 0.250000 0.093750
vt 0.406250 0.093750
vt 0.250000 0.031250
vt 0.406250 0.031250
vt 0.156250 0.265625
vt 0.156250 0.250000
vt 0.000000 0.250000
vt 0.000000 0.265625
vt 0.250000 0.000000
vt 0.250000 0.031250
vt 0.406250 0.031250
vt 0.406250 0.000000
vt 0.437500 0.140625
vt 0.437500 0.031250
vt 0.187500 0.265625
vt 0.187500 0.250000
vt 0.437500 0.031250
vt 0.437500 0.000000
vt 0.453125 0.031250
vt 0.203125 0.265625
vt 0.203125 0.250000
vt 0.453125 0.031250
vt 0.453125 0.000000
vt 0.468750 0.093750
vt 0.468750 0.031250
vt 0.406250 0.140625
vt 0.406250 0.171875
vt 0.406250 0.218750
vt 0.437500 0.218750
vt 0.437500 0.171875
vt 0.406250 0.171875
vt 0.406250 0.156250
vt 0.437500 0.156250
vt 0.437500 0.171875
vt 0.437500 0.250000
vt 0.437500 0.218750
vt 0.406250 0.218750
vt 0.406250 0.250000
vt 0.250000 0.171875
vt 0.250000 0.218750
vt 0.250000 0.171875
vt 0.250000 0.156250
vt 0.250000 0.218750
vt 0.250000 0.250000
vt 0.437500 0.171875
vt 0.453125 0.171875
vt 0.468750 0.156250
vt 0.468750 0.171875
vt 0.500000 0.156250
vt 0.500000 0.171875
vt 0.468750 0.140625
vt 0.500000 0.140625
vt 0.500000 0.125000
vt 0.500000 0.093750
vt 0.500000 0.218750
vt 0.500000 0.250000
vt 0.750000 0.500000
vt 0.500000 0.500000
vt 0.500000 0.250000
vt 0.750000 0.250000
vt 0.750000 0.250000
vt 0.500000 0.250000
vt 0.500000 0.500000
vt 0.750000 0.500000
vn 0.000000 0.000000 1.000000
vn 0.000000 0.000000 1.000000
vn 0.000000 0.000000 1.000000
vn 0.000000 0.000000 1.000000
vn 0.000000 0.000000 1.000000
vn 0.000000 0.000000 1.000000
vn 0.000000 0.000000 1.000000
vn 0.000000 0.000000 1.000000
vn 0.000000 0.000000 1.000000
vn 0.000000 0.000000 1.000000
vn 0.000000 0.000000 1.000000
vn 0.000000 0.000000 1.000000
vn 0.000000 0.000000 1.000000
vn 0.000000 0.000000 1.000000
vn 0.000000 0.000000 1.000000
vn 0.000000 0.000000 1.000000
vn 0.000000 0.000000 1.000000
vn 0.000000 0.000000 1.000000
vn 0.000000 0.000000 1.000000
vn 0.000000 0.000000 1.000000
vn 0.000000 0.000000 1.000000
vn 0.000000 0.000000 1.000000
vn 0.000000 0.000000 1.000000
vn 0.000000 0.000000 1.000000
vn 0.000000 0.000000 1.000000
vn 0.000000 0.000000 1.000000
vn 0.000000 0.000000 1.000000
vn 0.000000 0.000000 1.000000
vn 0.000000 0.000000 1.000000
vn 0.000000 0.000000 1.000000
vn 0.000000 0.000000 1.000000
vn 0.000001 0.000000 1.000000
vn 0.000000 0.000000 1.000000
vn 0.000000 -1.000000 0.000000
vn 0.000000 -1.000000 0.000000
vn 0.000000 -1.000000 0.000000
vn 0.000000 -1.000000 0.000000
vn -1.000000 0.000000 0.000000
vn -1.000000 0.000000 0.000000
vn -1.000000 0.000000 0.000000
vn -1.000000 0.000000 0.000000
vn 0.000000 -1.000000 0.000000
vn 0.000000 -1.000000 0.000000
vn 0.000000 -1.000000 0.000000
vn 0.000000 -1.000000 0.000000
vn -1.000000 0.000000 0.000000
vn -1.000000 0.000000 0.000000
vn -1.000000 0.000000 0.000000
vn -1.000000 0.000000 0.000000
vn -1.000000 0.000000 0.000000
vn -1.000000 0.000000 0.000000
vn -1.000000 0.000000 0.000000
vn -1.000000 0.000000 0.000000
vn 0.000000 -1.000000 0.000000
vn 0.000000 -1.000000 0.000000
vn 0.000000 -1.000000 0.000000
vn 0.000000 -1.000000 0.000000
vn -0.004060 -0.999992 0.000000
vn -0.004060 -0.999992 0.000000
vn -0.004060 -0.999992 0.000000
vn -0.004060 -0.999992 0.000000
vn -1.000000 0.000000 0.000000
vn -1.000000 0.000000 0.000000
vn -1.000000 0.000000 0.000000
vn -1.000000 0.000000 0.000000
vn 0.000000 -1.000000 0.000000
vn 0.000000 -1.000000 0.000000
vn 0.000000 -1.000000 0.000000
vn 0.000000 -1.000000 0.000000
vn -1.000000 0.000000 0.000000
vn -1.000000 0.000000 0.000000
vn -1.000000 0.000000 0.000000
vn -1.000000 0.000000 0.000000
vn 0.000000 1.000000 0.000000
vn 0.000000 1.000000 0.000000
vn 0.000000 1.000000 0.000000
vn 0.000000 1.000000 0.000000
vn 0.000000 1.000000 0.000000
vn 0.000000 1.000000 0.000000
vn 0.000000 1.000000 0.000000
vn 0.000000 1.000000 0.000000
vn 0.000000 1.000000 0.000000
vn 0.000000 1.000000 0.000000
vn 0.000000 0.000000 1.000000
vn 0.000000 0.000000 1.000000
vn 0.000000 0.000000 1.000000
vn 0.000000 0.000000 1.000000
vn 0.000000 0.000000 1.000000
vn 0.000000 0.000000 1.000000
vn 0.000000 1.000000 0.000000
vn 0.000000 1.000000 0.000000
vn 0.000000 1.000000 0.000000
vn 0.000000 1.000000 0.000000
vn 0.000000 0.000000 1.000000
vn 0.000000 0.000000 1.000000
vn 0.000000 0.000000 1.000000
vn 0.000000 0.000000 1.000000
vn 0.000000 0.000000 1.000000
vn 0.000000 0.000000 1.000000
vn 0.000000 1.000000 0.000000
vn 0.000000 1.000000 0.000000
vn 0.000000 0.000000 1.000000
vn 0.000000 0.000000 1.000000
vn 0.000000 0.000000 1.000000
vn 0.000000 1.000000 0.000000
vn 0.000000 1.000000 0.000000
vn 0.000000 0.000000 1.000000
vn 0.000000 0.000000 1.000000
vn 0.000000 0.000000 1.000000
vn 0.000000 0.000000 1.000000
vn 0.000000 1.000000 0.000000
vn 0.000000 1.000000 0.000000
vn 0.000000 0.000000 1.000000
vn 0.000000 0.000000 1.000000
vn 0.000000 0.000000 1.000000
vn 0.000000 0.000000 1.000000
vn 0.000000 0.000000 1.000000
vn 0.000000 -1.000000 0.000000
vn 0.000000 -1.000000 0.000000
vn 0.000000 -1.000000 0.000000
vn 0.000000 -1.000000 0.000000
vn 0.000000 0.000000 1.000000
vn 0.000000 0.000000 1.000000
vn 0.000000 0.000000 1.000000
vn 0.000000 0.000000 1.000000
vn 0.000000 0.000000 1.000000
vn 0.000000 0.000000 1.000000
vn 0.000000 -1.000000 0.000000
vn 0.000000 -1.000000 0.000000
vn 0.000000 0.000000 1.000000
vn 0.000000 0.000000 1.000000
vn 0.000000 0.000000 1.000000
vn 0.000000 0.000000 1.000000
vn 0.000000 0.000000 1.000000
vn 0.000000 0.000000 1.000000
vn 0.000000 0.000000 1.000000
vn 0.000000 0.000000 1.000000
vn 0.000000 0.000000 1.000000
vn 0.000000 0.000000 1.000000
vn 0.000000 0.000000 1.000000
vn 0.000000 0.000000 1.000000
vn 0.000000 0.000000 1.000000
vn 0.000000 0.000000 1.000000
vn 1.000000 0.000000 0.000000
vn 1.000000 0.000000 0.000000
vn 1.000000 0.000000 0.000000
vn 1.000000 0.000000 0.000000
vn 1.000000 0.000000 0.000000
vn 1.000000 0.000000 0.000000
vn 1.000000 0.000000 0.000000
vn 1.000000 0.000000 0.000000
vn 1.000000 0.000000 0.000000
vn 1.000000 0.000000 0.000000
vn 1.000000 0.000000 0.000000
vn 1.000000 0.000000 0.000000
vn 1.000000 0.000000 0.000000
vn 1.000000 0.000000 0.000000
vn 1.000000 0.000000 0.000000
vn 1.000000 0.000000 0.000000
vn 1.000000 0.000000 0.000000
vn 1.000000 0.000000 0.000000
vn 1.000000 0.000000 0.000000
vn 1.000000 0.000000 0.000000
vn 1.000000 0.000000 0.000000
vn 1.000000 0.000000 0.000000
vn 1.000000 0.000000 0.000000
vn 1.000000 0.000000 0.000000
vn 1.000000 0.000000 0.000000
vn 1.000000 0.000000 0.000000
vn 1.000000 0.000000 0.000000
vn 1.000000 0.000000 0.000000
vn 1.000000 0.000000 0.000000
vn 1.000000 0.000000 0.000000
vn 1.000000 0.000000 0.000000
vn 1.000000 0.000000 0.000000
vn 1.000000 0.000000 0.000000
vn 0.000000 -1.000000 0.000000
vn 0.000000 -1.000000 0.000000
vn 0.000000 -1.000000 0.000000
vn 0.000000 -1.000000 0.000000
vn 0.000000 0.000000 -1.000000
vn 0.000000 0.000000 -1.000000
vn 0.000000 0.000000 -1.000000
vn 0.000000 0.000000 -1.000000
vn 0.000000 -1.000000 0.000000
vn 0.000000 -1.000000 0.000000
vn 0.000000 -1.000000 0.000000
vn 0.000000 -1.000000 0.000000
vn 0.000000 0.000000 -1.000000
vn 0.000000 0.000000 -1.000000
vn 0.000000 0.000000 -1.000000
vn 0.000000 0.000000 -1.000000
vn 0.000000 0.000000 -1.000000
vn 0.000000 0.000000 -1.000000
vn 0.000000 0.000000 -1.000000
vn 0.000000 0.000000 -1.000000
vn 0.000000 -1.000000 0.000000
vn 0.000000 -1.000000 0.000000
vn 0.000000 -1.000000 0.000000
vn 0.000000 -1.000000 0.000000
vn 0.000000 -0.999992 -0.004060
vn 0.000000 -0.999992 -0.004060
vn 0.000000 -0.999992 -0.004060
vn 0.000000 -0.999992 -0.004060
vn 0.000000 0.000000 -1.000000
vn 0.000000 0.000000 -1.000000
vn 0.000000 0.000000 -1.000000
vn 0.000000 0.000000 -1.000000
vn 0.000000 -1.000000 0.000000
vn 0.000000 -1.000000 0.000000
vn 0.000000 -1.000000 0.000000
vn 0.000000 -1.000000 0.000000
vn 0.000000 0.000000 -1.000000
vn 0.000000 0.000000 -1.000000
vn 0.000000 0.000000 -1.000000
vn 0.000000 0.000000 -1.000000
vn 0.000000 1.000000 0.000000
vn 0.000000 1.000000 0.000000
vn 0.000000 1.000000 0.000000
vn 0.000000 1.000000 0.000000
vn 0.000000 1.000000 0.000000
vn 0.000000 1.000000 0.000000
vn 0.000000 1.000000 0.000000
vn 0.000000 1.000000 0.000000
vn 0.000000 1.000000 0.000000
vn 0.000000 1.000000 0.000000
vn 1.000000 0.000000 0.000000
vn 1.000000 0.000000 0.000000
vn 1.000000 0.000000 0.000000
vn 1.000000 0.000000 0.000000
vn 1.000000 0.000000 0.000000
vn 1.000000 0.000000 0.000000
vn 0.000000 1.000000 0.000000
vn 0.000000 1.000000 0.000000
vn 0.000000 1.000000 0.000000
vn 0.000000 1.000000 0.000000
vn 1.000000 0.000000 0.000000
vn 1.000000 0.000000 0.000000
vn 1.000000 0.000000 0.000000
vn 1.000000 0.000000 0.000000
vn 1.000000 0.000000 0.000000
vn 1.000000 0.000000 0.000000
vn 0.000000 1.000000 0.000000
vn 0.000000 1.000000 0.000000
vn 1.000000 0.000000 0.000000
vn 1.000000 0.000000 0.000000
vn 1.000000 0.000000 0.000000
vn 0.000000 1.000000 0.000000
vn 0.000000 1.000000 0.000000
vn 1.000000 0.000000 0.000000
vn 1.000000 0.000000 0.000000
vn 1.000000 0.000000 0.000000
vn 1.000000 0.000000 0.000000
vn 0.000000 1.000000 0.000000
vn 0.000000 1.000000 0.000000
vn 1.000000 0.000000 0.000000
vn 1.000000 0.000000 0.000000
vn 1.000000 0.000000 0.000000
vn 1.000000 0.000000 0.000000
vn 1.000000 0.000000 0.000000
vn 0.000000 -1.000000 0.000000
vn 0.000000 -1.000000 0.000000
vn 0.000000 -1.000000 0.000000
vn 0.000000 -1.000000 0.000000
vn 1.000000 0.000000 0.000000
vn 1.000000 0.000000 0.000000
vn 1.000000 0.000000 0.000000
vn 1.000000 0.000000 0.000000
vn 1.000000 0.000000 0.000000
vn 1.000000 0.000000 0.000000
vn 0.000000 -1.000000 0.000000
vn 0.000000 -1.000000 0.000000
vn 1.000000 0.000000 0.000000
vn 1.000000 0.000000 0.000000
vn 1.000000 0.000000 0.000000
vn 1.000000 0.000000 0.000000
vn 1.000000 0.000000 0.000000
vn 1.000000 0.000000 0.000000
vn 1.000000 0.000000 0.000000
vn 1.000000 0.000000 0.000000
vn 1.000000 0.000000 0.000000
vn 1.000000 0.000000 0.000000
vn 1.000000 0.000000 0.000000
vn 1.000000 0.000000 0.000000
vn 1.000000 0.000000 0.000000
vn 1.000000 0.000000 0.000000
vn 0.000000 1.000000 0.000000
vn 0.000000 1.000000 0.000000
vn 0.000000 1.000000 0.000000
vn 0.000000 1.000000 0.000000
vn 0.000000 -1.000000 0.000000
vn 0.000000 -1.000000 0.000000
vn 0.000000 -1.000000 0.000000
vn 0.000000 -1.000000 0.000000
usemtl initialShadingGroup
f 1/1/1 4/2/2 3/3/3 2/4/4
f 5/5/5 8/6/6 7/7/7 6/8/8
f 9/9/9 12/10/10 11/11/11 10/12/12
f 13/13/13 16/14/14 15/15/15 14/16/16
f 17/17/17 20/18/18 19/19/19 18/20/20
f 21/21/21 24/22/22 23/23/23 22/24/24
f 25/25/25 28/26/26 27/27/27 26/28/28
f 29/29/29 32/30/30 31/31/31 30/32/32
f 14/16/16 17/17/17 18/20/20 33/33/33
f 13/34/34 31/35/35 34/36/36 16/37/37
f 16/37/38 34/36/39 35/38/40 3/39/41
f 23/40/42 25/41/43 26/42/44 22/43/45
f 22/43/46 26/42/47 27/44/48 36/45/49
f 18/46/50 37/47/51 29/48/52 33/49/53
f 37/47/54 18/46/55 36/45/56 27/44/57
f 33/49/58 29/48/59 30/50/60 14/51/61
f 30/50/62 31/52/63 13/53/64 14/51/65
f 10/54/66 11/55/67 6/56/68 7/57/69
f 6/58/70 11/59/71 12/60/72 38/61/73
f 38/62/74 12/63/75 9/64/76 39/65/77
f 39/65/77 9/64/76 41/66/78 40/67/79
f 21/68/80 43/69/81 42/70/82 24/71/83
f 27/27/27 28/26/26 45/72/84 44/73/85
f 46/74/86 47/75/87 44/73/85 45/72/84
f 48/76/88 49/77/89 47/75/87 46/74/86
f 49/78/90 48/79/91 51/80/92 50/81/93
f 52/82/94 53/83/95 50/84/96 51/85/97
f 29/29/29 37/86/98 27/27/27 44/73/85
f 47/75/87 32/30/30 29/29/29 44/73/85
f 49/77/89 54/87/99 32/30/30 47/75/87
f 54/88/100 49/78/90 50/81/93 55/89/101
f 53/83/95 56/90/102 55/91/103 50/84/96
f 54/87/99 57/92/104 31/31/31 32/30/30
f 57/93/105 54/88/100 55/89/101 58/94/106
f 56/90/102 59/95/107 58/96/108 55/91/103
f 57/92/104 35/97/109 34/98/110 31/31/31
f 3/39/111 35/38/112 57/93/105 58/94/106
f 59/95/107 2/4/4 3/3/3 58/96/108
f 22/24/24 36/99/113 18/20/20 19/19/19
f 41/66/78 43/69/81 21/68/80 40/67/79
f 43/100/114 41/101/115 61/102/116 60/103/117
f 60/104/118 61/105/119 63/106/120 62/107/121
f 64/108/122 65/109/123 62/110/124 63/111/125
f 41/101/115 9/9/9 10/12/12 61/102/116
f 61/105/119 10/54/66 7/57/69 63/106/120
f 8/6/6 64/108/122 63/111/125 7/7/7
f 42/112/126 43/100/114 60/103/117 66/113/127
f 66/114/128 60/104/118 62/107/121 67/115/129
f 65/109/123 68/116/130 67/117/131 62/110/124
f 40/118/132 21/21/21 22/24/24 19/19/19
f 20/18/18 39/119/133 40/118/132 19/19/19
f 69/120/134 38/121/135 39/119/133 20/18/18
f 70/122/136 71/123/137 38/121/135 69/120/134
f 72/124/138 69/120/134 20/18/18 17/17/17
f 73/125/139 70/122/136 69/120/134 72/124/138
f 15/15/15 72/124/138 17/17/17 14/16/16
f 74/126/140 73/125/139 72/124/138 15/15/15
f 75/127/141 74/126/140 15/15/15 16/14/14
f 4/2/2 75/127/141 16/14/14 3/3/3
f 71/123/137 76/128/142 6/8/8 38/121/135
f 76/128/142 77/129/143 5/5/5 6/8/8
f 136/130/144 137/131/145 78/132/146 138/133/147
f 140/134/148 79/135/149 126/136/150 139/137/151
f 106/138/152 125/139/153 104/140/154 105/141/155
f 82/142/156 90/143/157 135/144/158 81/145/159
f 84/146/160 92/147/161 131/148/162 132/149/163
f 87/150/164 88/151/165 89/152/166 85/153/167
f 98/154/168 97/155/169 99/156/170 100/157/171
f 102/158/172 103/159/173 94/160/174 93/161/175
f 90/143/157 91/162/176 92/147/161 84/146/160
f 82/163/177 81/164/178 95/165/179 94/166/180
f 81/164/181 78/167/182 96/168/183 95/165/184
f 89/169/185 88/170/186 97/171/187 98/172/188
f 88/170/189 86/173/190 99/174/191 97/171/192
f 92/175/193 91/176/194 102/177/195 101/178/196
f 101/178/197 99/174/198 86/173/199 92/175/200
f 91/176/201 90/179/202 103/180/203 102/177/204
f 103/180/205 90/179/206 82/181/207 94/182/208
f 125/183/209 126/184/210 79/185/211 104/186/212
f 79/187/213 80/188/214 105/189/215 104/190/216
f 80/191/217 83/192/218 106/193/219 105/194/220
f 83/192/218 121/195/221 122/196/222 106/193/219
f 87/197/223 85/198/224 108/199/225 107/200/226
f 99/156/170 113/201/227 109/202/228 100/157/171
f 110/203/229 109/202/228 113/201/227 114/204/230
f 111/205/231 110/203/229 114/204/230 115/206/232
f 115/207/233 116/208/234 112/209/235 111/210/236
f 142/211/237 112/212/238 116/213/239 141/214/240
f 102/158/172 113/201/227 99/156/170 101/215/241
f 114/204/230 113/201/227 102/158/172 93/161/175
f 115/206/232 114/204/230 93/161/175 117/216/242
f 117/217/243 118/218/244 116/208/234 115/207/233
f 141/214/240 116/213/239 118/219/245 143/220/246
f 117/216/242 93/161/175 94/160/174 119/221/247
f 119/222/248 120/223/249 118/218/244 117/217/243
f 143/220/246 118/219/245 120/224/250 144/225/251
f 119/221/247 94/160/174 95/226/252 96/227/253
f 78/167/254 120/223/249 119/222/248 96/168/255
f 144/225/251 120/224/250 78/132/146 137/131/145
f 88/151/165 131/148/162 92/147/161 86/228/256
f 122/196/222 121/195/221 87/197/223 107/200/226
f 107/229/257 127/230/258 123/231/259 122/232/260
f 127/233/261 128/234/262 124/235/263 123/236/264
f 146/237/265 124/238/266 128/239/267 145/240/268
f 122/232/260 123/231/259 125/139/153 106/138/152
f 123/236/264 124/235/263 126/184/210 125/183/209
f 139/137/151 126/136/150 124/238/266 146/237/265
f 108/241/269 129/242/270 127/230/258 107/229/257
f 129/243/271 130/244/272 128/234/262 127/233/261
f 145/240/268 128/239/267 130/245/273 147/246/274
f 121/247/275 131/148/162 88/151/165 87/150/164
f 132/149/163 131/148/162 121/247/275 83/248/276
f 133/249/277 132/149/163 83/248/276 80/250/278
f 149/251/279 133/249/277 80/250/278 148/252/280
f 134/253/281 84/146/160 132/149/163 133/249/277
f 150/254/282 134/253/281 133/249/277 149/251/279
f 135/144/158 90/143/157 84/146/160 134/253/281
f 151/255/283 135/144/158 134/253/281 150/254/282
f 152/256/284 81/145/159 135/144/158 151/255/283
f 138/133/147 78/132/146 81/145/159 152/256/284
f 148/252/280 80/250/278 79/135/149 153/257/285
f 153/257/285 79/135/149 140/134/148 154/258/286
f 158/259/287 155/260/288 156/261/289 157/262/290
f 159/263/291 160/264/292 161/265/293 162/266/294
