# This file uses centimeters as units for non-parametric coordinates.

mtllib edge.mtl
g default
v -8.000000 2.000000 -8.000000
v -8.000000 2.000000 8.000000
v -8.000000 10.000000 -8.000000
v -8.000000 10.000000 8.000000
v -8.000000 12.000000 7.000000
v -8.000000 12.000000 8.000000
v -8.000000 15.000000 7.000000
v -8.000000 15.000000 8.000000
v 8.000000 15.000000 8.000000
v 8.000000 12.000000 8.000000
v 8.000000 10.000000 -8.000000
v 8.000000 10.000000 8.000000
v 8.000000 2.000000 -8.000000
v 8.000000 2.000000 8.000000
v 8.000000 12.000000 7.000000
v 8.000000 15.000000 7.000000
vt 0.375000 0.031250
vt 0.625000 0.031250
vt 0.375000 0.156250
vt 0.625000 0.156250
vt 0.609375 0.187500
vt 0.625000 0.187500
vt 0.609375 0.234375
vt 0.625000 0.234375
vt 0.375000 0.593750
vt 0.625000 0.718750
vt 0.875000 0.156250
vt 0.875000 0.187500
vt 0.875000 0.234375
vt 0.125000 0.031250
vt 0.734375 0.375000
vt 0.734375 0.375000
vn 0.000000 1.000000 0.000000
vn 0.000000 1.000000 0.000000
vn 0.000000 1.000000 0.000000
vn 0.000000 1.000000 0.000000
vn 0.000000 0.000000 1.000000
vn 0.000000 0.000000 1.000000
vn 0.000000 0.000000 1.000000
vn 0.000000 0.000000 1.000000
vn 0.000000 -1.000000 0.000000
vn 0.000000 -1.000000 0.000000
vn 0.000000 -1.000000 0.000000
vn 0.000000 -1.000000 0.000000
vn 0.000000 -0.000000 0.000000
vn 0.000000 -0.000000 0.000000
vn 0.000000 -1.000000 0.000000
vn 0.000000 -1.000000 0.000000
vn 0.000000 -1.000000 0.000000
vn 0.000000 1.000000 0.000000
vn 0.000000 1.000000 0.000000
vn 0.000000 1.000000 0.000000
vn 0.000000 1.000000 0.000000
s off
g general polySurface9 polySurface7 polySurface4 pCube1
usemtl initialShadingGroup
f 14/10/1 13/14/2 1/1/3 2/2/4
f 16/16/5 7/7/6 5/5/7 15/15/8
f 3/3/9 11/9/10 12/11/11 4/4/12
f 8/8/13 8/8/14 7/7/15 16/16/16 9/13/17
f 6/6/18 10/12/19 15/15/20 5/5/21
g default
v -8.000000 0.000000 -8.000000
v -8.000000 0.000000 8.000000
v 8.000000 0.000000 -8.000000
v 8.000000 0.000000 8.000000
vt 0.375000 1.000000
vt 0.375000 0.750000
vt 0.625000 0.750000
vt 0.625000 1.000000
vn 0.000000 -1.000000 0.000000
vn 0.000000 -1.000000 0.000000
vn 0.000000 -1.000000 0.000000
vn 0.000000 -1.000000 0.000000
s off
g polySurface9 polySurface7 polySurface4 pCube1 bottom
usemtl initialShadingGroup
f 17/17/22 19/18/23 20/19/24 18/20/25
g default
v -8.000000 16.000000 -8.000000
v -8.000000 16.000000 8.000000
v 8.000000 16.000000 -8.000000
v 8.000000 16.000000 8.000000
vt 0.375000 0.500000
vt 0.375000 0.250000
vt 0.625000 0.250000
vt 0.625000 0.500000
vn 0.000000 1.000000 0.000000
vn 0.000000 1.000000 0.000000
vn 0.000000 1.000000 0.000000
vn 0.000000 1.000000 0.000000
s off
g polySurface7 polySurface4 pCube1 top
usemtl initialShadingGroup
f 23/21/26 21/22/27 22/23/28 24/24/29
g default
v 8.000000 2.000000 8.000000
v -8.000000 2.000000 8.000000
v -8.000000 0.000000 8.000000
v 8.000000 0.000000 8.000000
v -8.000000 12.000000 8.000000
v -8.000000 10.000000 8.000000
v 8.000000 10.000000 8.000000
v 8.000000 12.000000 8.000000
v -8.000000 15.000000 8.000000
v 8.000000 15.000000 8.000000
v 8.000000 16.000000 8.000000
v -8.000000 16.000000 8.000000
vt 0.875000 0.031250
vt 0.625000 0.031250
vt 0.625000 0.000000
vt 0.875000 0.000000
vt 0.625000 0.187500
vt 0.625000 0.156250
vt 0.875000 0.156250
vt 0.875000 0.187500
vt 0.625000 0.234375
vt 0.875000 0.234375
vt 0.875000 0.250000
vt 0.625000 0.250000
vn 0.000000 0.000000 1.000000
vn 0.000000 0.000000 1.000000
vn 0.000000 0.000000 1.000000
vn 0.000000 0.000000 1.000000
vn 0.000000 0.000000 0.000000
vn 0.000000 0.000000 0.000000
vn 0.000000 0.000000 1.000000
vn 0.000000 0.000000 1.000000
vn 0.000000 0.000000 1.000000
vn 0.000000 0.000000 1.000000
vn 0.000000 0.000000 1.000000
vn 0.000000 0.000000 1.000000
vn 0.000000 0.000000 1.000000
s off
g south
usemtl initialShadingGroup
f 25/25/30 26/26/31 27/27/32 28/28/33
f 29/29/34 29/29/35 30/30/36 31/31/37 32/32/38
f 33/33/39 34/34/40 35/35/41 36/36/42
